<?xml version="1.0" encoding="utf-8"?>
<!-- Generator: Adobe Illustrator 19.0.0, SVG Export Plug-In . SVG Version: 6.00 Build 0)  -->
<svg version="1.1" id="Calque_1" xmlns="http://www.w3.org/2000/svg" xmlns:xlink="http://www.w3.org/1999/xlink" x="0px" y="0px"
	 viewBox="0 0 500 500" enable-background="new 0 0 500 500" xml:space="preserve">
<path fill="#010202" d="M495.007,150.031c0,0-4.885-34.455-19.878-49.628c-19.013-19.914-40.325-20.013-50.098-21.179
	c-69.968-5.058-174.923-5.058-174.923-5.058h-0.217c0,0-104.953,0-174.923,5.058c-9.774,1.166-31.078,1.264-50.098,21.179
	C9.879,115.576,5,150.031,5,150.031s-5,40.462-5,80.924v37.933c0,40.461,5,80.923,5,80.923s4.878,34.456,19.87,49.629
	c19.02,19.915,44.004,19.285,55.132,21.372c40,3.836,169.998,5.023,169.998,5.023s105.063-0.158,175.031-5.216
	c9.773-1.166,31.085-1.264,50.098-21.179c14.992-15.173,19.878-49.629,19.878-49.629S500,309.349,500,268.888v-37.933
	C500,190.493,495.007,150.031,495.007,150.031z M317.327,253.974l-0.012-0.008L198.87,315.345v-0.012l-0.023,0.012V174.858
	l135.102,70.488L317.327,253.974z"/>
</svg>
