<?xml version="1.0" encoding="utf-8"?>
<!-- Generator: Adobe Illustrator 19.0.0, SVG Export Plug-In . SVG Version: 6.00 Build 0)  -->
<svg version="1.1" id="Calque_1" xmlns="http://www.w3.org/2000/svg" xmlns:xlink="http://www.w3.org/1999/xlink" x="0px" y="0px"
	 viewBox="0 0 500 500" enable-background="new 0 0 500 500" xml:space="preserve">
<path id="XMLID_11_" fill="#12100D" d="M452.749,104.645C348.279-14.182,189.468,59.103,189.468,59.103
	c-8.863,3.991-15.079,7.765-19.303,11.287c-4.981,3.513-9.305,7.404-11.007,11.241c-6.848,15.365-11.838,29.884-15.517,43.119
	c-18.845,24.756-31.901,54.137-37.2,86.148c-18.875,26.628-30.242,57.493-32.231,89.468C29.19,288.66,0,274.439,0,274.439
	c25.248,14.638,49.986,25.935,73.946,34.51c-0.142,15.573,1.775,31.315,6.353,46.887c9.854,33.535,29.851,61.567,56.072,82.266
	c-15.213-17.132-26.879-37.516-33.652-60.557c-5.974-20.328-7.445-40.949-5.337-61.069c5.53,1.615,11.011,3.105,16.441,4.445
	c22.815,68.394,82.338,119.983,155.229,131.305c26.39,11.706,53.784,14.537,79.399,6.324c12.422-3.981,23.618-10.313,33.517-18.601
	c2.907-2.436,5.654-5.093,8.329-7.849c50.024-26.352,87.205-73.731,99.827-130.398c-0.105,2.541-0.218,3.955-0.218,3.955
	S529.196,191.595,452.749,104.645z M140.487,137.061c-4.157,17.886-5.816,32.604-6.447,42.764
	c-7.851,7.104-14.953,14.807-21.41,22.936C117.773,178.916,127.335,156.703,140.487,137.061z M133.755,228.379
	c1.466,24.08,6.11,49.212,14.386,74.45c1.228,3.744,2.53,7.431,3.879,11.08c-12.798-1.109-25.114-2.747-36.854-4.75
	c-3.347-12.273-5.47-25.013-6.292-38.127C115.066,255.883,123.422,241.536,133.755,228.379z M98.76,306.078
	c1.445-8.45,3.547-16.767,6.286-24.909c1.042,9.242,2.697,18.298,4.982,27.103C106.195,307.577,102.45,306.84,98.76,306.078z
	 M119.23,322.204c13.327,3.097,26.362,5.483,38.987,7.109c22.52,52.099,57.305,92.752,95.484,115.016
	C190.973,428.877,140.446,382.472,119.23,322.204z M395.736,423.658c-1.325-2.277-11.066,2.546-11.066,2.546
	c-6.377,3.874-13.187,6.999-20.411,9.332c-61.216,19.628-132.787-25.145-175.166-103.496c107.661,5.222,181.063-36.11,181.063-36.11
	s17.979,0,14.385-24.563c-3.594-24.573-21.564-6.143-21.564-6.143c-59.382,39.465-124.068,51.137-182.19,50.173
	c-4.765-10.34-9.064-21.142-12.756-32.403c-8.531-26.026-12.998-51.893-14.155-76.602c21.332-19.701,47.801-35.13,78.137-44.046
	c27.833-8.179,55.864-9.917,82.392-6.288c0,0,4.81,3.576,3.63-9.467c-1.171-13.043-10.827-15.042-10.827-15.042
	c-30.211-5.882-62.701-4.864-94.93,4.603c-20.873,6.137-39.832,15.423-56.729,26.894c1.961-14.923,5.173-29.116,9.888-42.061
	c0,0,4.882-13.511,25.798-24.582c29.941-11.404,118.953-41.183,176.592-16.601c98.523,42.028,118.34,141.806,121.797,193.515
	C484.839,337.436,448.346,392.722,395.736,423.658z"/>
</svg>
