<?xml version="1.0" encoding="utf-8"?>
<!-- Generator: Adobe Illustrator 19.0.0, SVG Export Plug-In . SVG Version: 6.00 Build 0)  -->
<svg version="1.1" id="Calque_1" xmlns="http://www.w3.org/2000/svg" xmlns:xlink="http://www.w3.org/1999/xlink" x="0px" y="0px"
	 viewBox="0 0 500 500" enable-background="new 0 0 500 500" xml:space="preserve">
<g>
	<path id="XMLID_2_" fill="#010202" d="M160.258,219.967c0.006,20.851-0.025,41.701,0.012,62.546
		c29.113-0.006,58.227-0.013,87.334,0c-3.374,19.981-15.248,38.252-32.087,49.501c-10.585,7.117-22.747,11.737-35.285,13.934
		c-12.619,2.153-25.658,2.429-38.246-0.119c-12.801-2.554-25.02-7.887-35.68-15.405c-17.045-11.975-30.052-29.495-36.731-49.213
		c-6.829-20.056-6.879-42.371,0.031-62.408c4.795-14.122,12.776-27.167,23.261-37.783c12.932-13.239,29.746-22.704,47.861-26.584
		c15.511-3.311,31.868-2.679,47.053,1.915c12.907,3.918,24.807,10.992,34.553,20.3c9.853-9.796,19.655-19.649,29.489-29.464
		c5.158-5.283,10.579-10.335,15.574-15.762c-14.935-13.821-32.443-24.932-51.573-31.955c-34.44-12.676-73.281-12.945-107.953-0.945
		C68.8,111.902,35.53,141.121,17.083,178.053c-6.422,12.726-11.111,26.309-13.928,40.28c-7.086,34.81-2.147,71.923,13.909,103.627
		c10.435,20.694,25.395,39.091,43.542,53.513c17.12,13.652,37.076,23.736,58.233,29.364c26.697,7.161,55.116,6.998,81.988,0.883
		c24.287-5.59,47.266-17.195,65.613-34.134c19.392-17.821,33.226-41.301,40.55-66.533c7.987-27.523,9.089-56.906,4.081-85.08
		C260.8,219.948,210.529,219.961,160.258,219.967z"/>
	<polygon id="XMLID_1_" fill="#010202" points="500,223.371 445.12,223.371 445.12,168.491 405.201,168.491 405.201,223.371 
		350.321,223.371 350.321,263.29 405.201,263.29 405.201,318.17 445.12,318.17 445.12,263.29 500,263.29 	"/>
</g>
</svg>
